<svg viewBox="0 0 233 24" xmlns="http://www.w3.org/2000/svg"><path d="m105.015143 38.0007266c3.999879 0 7.132936 2.7770276 7.132936 6.3227877v.0661197c0 3.859647-1.659532 6.1135297-5.357149 6.930217l6.108443 7.5848749-3.726681 3.0952741-12.1449544-15.0244316 7.7912264.0508613c1.217039 0 1.944355-.7890769 1.944355-2.111471 0-1.2526415-.833399-2.0613363-2.12237-2.0613363h-12.512609v-4.8528958zm126.767243-.0002906v.0058127l16.870697 20.8952802-3.779722 3.045866-13.090975-16.2138597v15.200993h-4.853622v-22.9340922zm-80.766456-.000436v14.6008295c0 2.3352608 2.435531 4.2149496 4.863069 4.2149496 2.440616 0 4.892858-1.8658835 4.892858-4.1837062v-14.6320729h4.855075v14.8195332c0 4.8616148-4.291968 9.1266991-9.747933 9.1266991-5.440708 0-9.716691-4.2650843-9.716691-9.1266991v-14.8195332zm-80.2676511 0v14.6008295c0 2.3352608 2.4355302 4.2149496 4.8623414 4.2149496 2.441343 0 4.8935848-1.8658835 4.8935848-4.1837062v-14.6320729h4.854349v14.8195332c0 4.8616148-4.2912416 9.1266991-9.7479338 9.1266991-5.4399806 0-9.7159638-4.2650843-9.7159638-9.1266991v-14.8195332zm60.5145711.0007992c4.000606.03197 7.133662 2.8228029 7.133662 6.3533045v.0668463c0 2.1572462-.59435 3.8581938-1.76634 5.0621538 1.17199 1.2032333 1.76634 2.9049075 1.76634 5.0621537v.0661197c0 3.54576-3.133783 6.3227877-7.133662 6.3227877h-10.467985v-4.8587085h10.088705c1.292604 0 2.127456-.8072417 2.127456-2.054797v-.1576701c0-1.2322969-.793436-1.9683328-2.12237-1.9683328h-6.250129v-4.8550755h6.250856c1.328933 0 2.121643-.7236838 2.121643-1.9356362v-.1583967c0-1.2700796-.832672-2.0911265-2.12237-2.0911265l-10.093791-.0007266v-4.8528958zm85.81524 18.0787988v4.8550755h-17.161333v-4.8550755zm-159.9167567-18.0788714-.0079925 22.9333656h-4.8478096v-18.0797433l-12.3055312-.0007265v-4.8528958zm122.2829467.0002906v18.0790167l12.305531.0007266v4.8536224h-17.16206l.008719-22.9333657zm92.729327-.0002906v4.8528958l-12.128244.0007265v18.0797433h-4.848536l-.007992-22.9333656zm-59.609821 9.0386364v4.8550756h-12.647029v-4.8550756zm4.514304-9.0387817v4.8536223h-17.161333v-4.8536223z" fill="#04e3ff" fill-rule="evenodd" transform="translate(-40 -38)"/></svg>